<?xml version="1.0" encoding="utf-8"?>
<svg width="41px" height="30px" viewBox="0 0 41 30" version="1.1" xmlns:xlink="http://www.w3.org/1999/xlink" xmlns="http://www.w3.org/2000/svg">
  <desc>Created with Lunacy</desc>
  <g id="Group-7">
    <g id="Group-15">
      <path d="M11.4276 0L10.8466 0L9.21157 0L8.63128 0L8.20345 0L8.20345 0.43394L8.20345 1.0233L8.20345 4.59344L3.63696 4.59344L3.63696 1.0233L3.63696 0.43394L3.63696 0L3.20906 0L2.62884 0L1.00888 0L0.427829 0L0 0L0 0.43394L0 1.0233L0 12.3707L0 12.96L0 13.394L0.427829 13.394L1.00888 13.394L2.62884 13.394L3.20906 13.394L3.63696 13.394L3.63696 12.96L3.63696 12.3707L3.63696 8.31373L8.20345 8.31373L8.20345 12.3707L8.20345 12.96L8.20345 13.394L8.63128 13.394L9.21157 13.394L10.8466 13.394L11.4276 13.394L11.8555 13.394L11.8555 1.0233L11.8555 0.43394L11.8555 0L11.4276 0Z" transform="translate(0 0.07788605)" id="Fill-1" fill="#90847A" stroke="none" />
      <g id="Group-14" transform="translate(0 0.00983938)">
        <path d="M11.1922 0L10.6112 0L9.00625 0L8.42527 0L7.99744 0L7.99744 0.43394L7.99744 1.0233L7.99744 7.88134C7.99744 9.19161 7.3772 9.91786 5.9217 9.91786C4.516 9.91786 3.63765 9.35074 3.63765 7.9847L3.63765 1.0233L3.63765 0.43394L3.63765 0L3.20982 0L2.62884 0L1.00881 0L0.427829 0L0 0L0 0.43394L0 1.0233L0 8.06573C0 9.13799 0.0618713 10.1927 0.804327 11.3023C1.81772 12.82 3.50635 13.622 5.68628 13.622C7.23535 13.622 9.34883 13.2677 10.6187 11.5763C11.5446 10.3633 11.62 9.26885 11.62 8.06573L11.62 1.0233L11.62 0.43394L11.62 0L11.1922 0Z" transform="translate(13.89287 0.06786073)" id="Fill-2" fill="#90847A" stroke="none" />
        <path d="M11.4997 6.2917C11.9253 5.66105 12.1177 4.97842 12.1177 4.12665C12.1177 1.65844 10.3868 0 7.80931 0L1.00881 0L0.427829 0L0 0L0 0.43394L0 1.02322L0 12.3707L0 12.9608L0 13.3947L0.427829 13.3947L1.00881 13.3947L7.80931 13.3947C9.00823 13.3947 10.14 13.3947 11.3774 12.2214C12.2135 11.4546 12.658 10.4321 12.658 9.26808C12.658 8.1828 12.2588 7.16113 11.4997 6.2917L11.4997 6.2917ZM3.63765 5.38098L3.63765 3.76151L7.6531 3.76151C8.24233 3.76151 8.4627 4.28424 8.4627 4.5743C8.4627 4.9317 8.25065 5.38098 7.6531 5.38098L3.63765 5.38098ZM7.97452 9.8252L3.63765 9.8252L3.63765 8.08642L7.89974 8.08642C8.8075 8.08642 9.02786 8.62364 9.02786 8.94361C9.02786 9.15024 8.95163 9.8252 7.97452 9.8252L7.97452 9.8252Z" transform="translate(27.55049 0.06767479)" id="Fill-4" fill="#90847A" stroke="none" />
        <path d="M11.4538 0L10.8728 0L1.16616 0L0.58518 0L0 0L0 0.43394L0 1.02322L0 2.68166L0 3.27101L0 3.70488L0.58518 3.70488L1.16616 3.70488L4.1466 3.70488L4.1466 12.3707L4.1466 12.9599L4.1466 13.394L4.57443 13.394L5.15548 13.394L6.74527 13.394L7.32625 13.394L7.75408 13.394L7.75408 12.9599L7.75408 12.3707L7.75408 3.70488L10.8728 3.70488L11.4538 3.70488L11.8816 3.70488L11.8816 0L11.4538 0Z" transform="translate(-2.29153E-05 15.5407)" id="Fill-7" fill="#90847A" stroke="none" />
        <path d="M7.03767 0C3.15704 0 0 3.07965 0 6.86494C0 10.8676 3.08463 14.0024 7.02255 14.0024C10.9032 14.0024 14.0603 10.8822 14.0603 7.04717C14.0603 3.09576 10.9757 0 7.03767 0M7.03767 10.2829C5.15434 10.2829 3.6226 8.83793 3.6226 7.06243C3.6226 5.12539 5.05244 3.72029 7.02255 3.72029C8.92933 3.72029 10.4225 5.14142 10.4225 6.95605C10.4225 8.82112 8.93613 10.2829 7.03767 10.2829" transform="translate(12.67277 15.20584)" id="Fill-10" fill="#90847A" stroke="none" />
        <path d="M11.5627 0L10.9817 0L9.33149 0L8.75051 0L8.32261 0L8.32261 0.43394L8.32261 1.02322L8.32261 6.74098L3.39093 0.390244L3.21662 0.165333L3.08837 0L2.88007 0L2.59867 0L1.00881 0L0.427829 0L0 0L0 0.43394L0 1.02322L0 12.3707L0 12.9599L0 13.394L0.427829 13.394L1.00881 13.394L2.61296 13.394L3.1947 13.394L3.6226 13.394L3.6226 12.9599L3.6226 12.3707L3.6226 6.67056L8.57086 13.0067L8.74593 13.2294L8.87426 13.394L9.08095 13.394L9.36166 13.394L10.9817 13.394L11.5627 13.394L11.9905 13.394L11.9905 12.9599L11.9905 12.3707L11.9905 1.02322L11.9905 0.43394L11.9905 0L11.5627 0Z" transform="translate(27.5505 15.5407)" id="Fill-12" fill="#90847A" stroke="none" />
      </g>
    </g>
  </g>
</svg>