<?xml version="1.0" encoding="utf-8"?>
<svg width="144px" height="100px" viewBox="0 0 144 100" version="1.1" xmlns:xlink="http://www.w3.org/1999/xlink" xmlns="http://www.w3.org/2000/svg">
  <desc>Created with Lunacy</desc>
  <g id="Group-55">
    <path d="M59.2093 98.696C43.4693 98.696 22.4093 95.696 11.4333 81.396C2.40131 69.62 -1.56269 55.192 0.561307 41.804C2.21331 31.356 7.47331 22.4 14.9933 17.236C27.6693 8.536 61.7933 0 83.8853 0C87.1893 0 90.1973 0.188 92.8253 0.552C122.201 4.628 135.793 22.564 139.197 32.52C143.461 44.996 142.177 76.576 110.577 89.132C95.5093 95.12 76.3053 98.696 59.2093 98.696" transform="translate(0.001892636 -0.0008)" id="Fill-1" fill="#413125" stroke="none" />
    <path d="M56.9444 94.16C41.7124 94.16 21.3764 91.312 10.9684 77.748C2.31241 66.468 -1.49159 52.668 0.53241 39.892C2.09241 30.052 7.00841 21.652 14.0164 16.836C26.3924 8.34 59.8764 0 81.6204 0C84.8164 0 87.7204 0.176 90.2484 0.528C118.528 4.452 131.552 21.52 134.788 30.984C138.836 42.824 137.576 72.796 107.476 84.756C92.6604 90.644 73.7684 94.16 56.9444 94.16" transform="translate(2.26679 2.2676)" id="Fill-3" fill="#FFFFFF" stroke="none" />
    <path d="M87.672 0.506777C113.556 4.09478 127.004 19.5788 130.38 29.4508C133.756 39.3228 133.584 68.7748 104.38 80.3828C76.656 91.3948 27.384 96.0868 10.508 74.0988C-6.04002 52.5388 -1.40002 26.3468 13.04 16.4348C26.792 6.99478 67.484 -2.29322 87.672 0.506777" transform="translate(4.527621 4.536023)" id="Fill-5" fill="#DDCAB3" stroke="none" />
    <path d="M9.508 16.248L13.596 16.248L11.844 8.184L11.608 8.184L9.508 16.248ZM19.676 27.312C17.416 27.312 16.196 26.948 16.016 26.22L14.728 21.196L8.532 21.196L7.404 26.024C7.252 26.832 6.004 27.232 3.664 27.232C2.42 27.232 1.496 27.164 0.9 27.02C0.3 26.876 0 26.764 0 26.688L6.9 0.316C6.9 0.108 8.676 0 12.236 0C15.792 0 17.572 0.108 17.572 0.316L24.308 26.728C24.308 26.908 23.712 27.052 22.52 27.156C21.324 27.256 20.376 27.312 19.676 27.312L19.676 27.312Z" transform="translate(20.2344 31.16)" id="Fill-7" fill="#413125" stroke="none" />
    <path d="M7.48 16.008L7.48 21.072L8.18 21.072C9.296 21.072 10.112 20.864 10.632 20.448C11.152 20.032 11.412 19.372 11.412 18.464C11.412 17.556 11.172 16.916 10.692 16.556C10.212 16.188 9.412 16.008 8.296 16.008L7.48 16.008ZM7.48 6.308L7.48 11.412L7.672 11.412C10.168 11.412 11.412 10.58 11.412 8.92C11.412 8.008 11.172 7.348 10.692 6.932C10.212 6.516 9.412 6.308 8.296 6.308L7.48 6.308ZM18.7 7.048C18.7 9.752 17.528 11.8 15.192 13.204C16.46 13.672 17.528 14.476 18.388 15.62C19.24 16.76 19.672 18.38 19.672 20.468C19.672 22.56 18.896 24.216 17.356 25.436C15.804 26.656 13.592 27.264 10.712 27.264L1.52 27.264C1.072 27.264 0.716 27.116 0.428 26.816C0.14 26.52 0 26.124 0 25.632L0 0.7C0 0.412 0.044 0.224 0.136 0.136C0.228 0.044 0.412 0 0.7 0L9.58 0C15.656 0 18.7 2.348 18.7 7.048L18.7 7.048Z" transform="translate(47.5476 31.1264)" id="Fill-9" fill="#413125" stroke="none" />
    <path d="M9.508 16.248L13.596 16.248L11.844 8.184L11.608 8.184L9.508 16.248ZM19.676 27.312C17.416 27.312 16.196 26.948 16.012 26.22L14.728 21.196L8.532 21.196L7.404 26.024C7.252 26.832 6.004 27.232 3.664 27.232C2.42 27.232 1.496 27.164 0.9 27.02C0.3 26.876 0 26.764 0 26.688L6.896 0.316C6.896 0.108 8.676 0 12.236 0C15.792 0 17.572 0.108 17.572 0.316L24.308 26.728C24.308 26.908 23.712 27.052 22.52 27.156C21.324 27.256 20.376 27.312 19.676 27.312L19.676 27.312Z" transform="translate(68.8908 31.16)" id="Fill-11" fill="#413125" stroke="none" />
    <path d="M21.192 26.644C21.192 27.084 19.88 27.308 17.26 27.308C14.632 27.308 13.324 27.084 13.324 26.644L13.324 17.684L7.872 17.684L7.872 26.644C7.872 27.084 6.56 27.308 3.936 27.308C1.312 27.308 0 27.084 0 26.644L0 0.816C0 0.272 1.312 0 3.936 0C6.56 0 7.872 0.272 7.872 0.816L7.872 9.972L13.324 9.972L13.324 0.896C13.324 0.532 13.972 0.272 15.272 0.116C15.944 0.064 16.608 0.04 17.26 0.04L19.248 0.116C20.544 0.272 21.192 0.532 21.192 0.896L21.192 26.644Z" transform="translate(95.7692 31.0864)" id="Fill-13" fill="#413125" stroke="none" />
    <path d="M3.164 2.852L3.164 5.44L3.38 5.44C3.756 5.44 4.08 5.324 4.344 5.084C4.604 4.844 4.74 4.504 4.74 4.064C4.74 3.628 4.648 3.316 4.468 3.132C4.284 2.944 3.964 2.852 3.508 2.852L3.164 2.852ZM1.492 11.508C0.496 11.508 0 11.396 0 11.18L0 0.556C0 0.188 0.168 0 0.508 0L3.396 0C5.012 0 6.176 0.336 6.892 1C7.608 1.668 7.964 2.632 7.964 3.9C7.964 4.952 7.624 5.912 6.948 6.784C6.608 7.224 6.112 7.572 5.456 7.836C4.804 8.1 4.04 8.228 3.164 8.228L3.164 11.164C3.164 11.292 2.956 11.384 2.552 11.436C2.14 11.48 1.788 11.508 1.492 11.508L1.492 11.508Z" transform="translate(40.2504 63.0208)" id="Fill-15" fill="#413125" stroke="none" />
    <path d="M5.212 3.148C4.688 3.148 4.248 3.388 3.892 3.868C3.536 4.348 3.36 5.024 3.36 5.896C3.36 6.76 3.528 7.428 3.868 7.892C4.204 8.356 4.648 8.588 5.204 8.588C5.756 8.588 6.204 8.356 6.548 7.884C6.892 7.412 7.064 6.744 7.064 5.868C7.064 4.992 6.888 4.32 6.528 3.852C6.176 3.384 5.736 3.148 5.212 3.148M5.204 11.784C3.668 11.784 2.416 11.284 1.452 10.276C0.48 9.272 0 7.808 0 5.876C0 3.948 0.488 2.484 1.464 1.492C2.444 0.496 3.708 0 5.252 0C6.796 0 8.048 0.488 8.996 1.468C9.948 2.448 10.424 3.928 10.424 5.908C10.424 7.892 9.936 9.368 8.964 10.336C7.992 11.304 6.74 11.784 5.204 11.784" transform="translate(49.3312 62.8732)" id="Fill-17" fill="#413125" stroke="none" />
    <path d="M5.652 11.212C5.652 11.432 5.112 11.54 4.032 11.54C2.948 11.54 2.408 11.432 2.408 11.212L2.408 2.984L0.44 2.984C0.256 2.984 0.124 2.732 0.052 2.228C0.016 1.992 0 1.744 0 1.492C0 1.24 0.016 0.996 0.052 0.756C0.124 0.252 0.256 0 0.44 0L7.572 0C7.756 0 7.888 0.252 7.964 0.756C7.996 0.996 8.016 1.24 8.016 1.492C8.016 1.744 7.996 1.992 7.964 2.228C7.888 2.732 7.756 2.984 7.572 2.984L5.652 2.984L5.652 11.212Z" transform="translate(60.3444 63.02)" id="Fill-19" fill="#413125" stroke="none" />
    <path d="M4 6.836L5.724 6.836L4.984 3.444L4.888 3.444L4 6.836ZM8.276 11.492C7.328 11.492 6.812 11.336 6.74 11.032L6.196 8.92L3.588 8.92L3.116 10.948C3.052 11.288 2.528 11.456 1.544 11.456C1.016 11.456 0.628 11.428 0.38 11.368C0.124 11.308 0 11.26 0 11.228L2.904 0.132C2.904 0.044 3.648 0 5.148 0C6.644 0 7.396 0.044 7.396 0.132L10.232 11.244C10.232 11.32 9.976 11.38 9.476 11.424C8.972 11.468 8.576 11.492 8.276 11.492L8.276 11.492Z" transform="translate(68.3088 63.0368)" id="Fill-21" fill="#413125" stroke="none" />
    <path d="M5.652 11.212C5.652 11.432 5.112 11.54 4.032 11.54C2.948 11.54 2.408 11.432 2.408 11.212L2.408 2.984L0.44 2.984C0.252 2.984 0.124 2.732 0.052 2.228C0.016 1.992 0 1.744 0 1.492C0 1.24 0.016 0.996 0.052 0.756C0.124 0.252 0.252 0 0.44 0L7.568 0C7.756 0 7.888 0.252 7.964 0.756C7.996 0.996 8.016 1.24 8.016 1.492C8.016 1.744 7.996 1.992 7.964 2.228C7.888 2.732 7.756 2.984 7.568 2.984L5.652 2.984L5.652 11.212Z" transform="translate(78.4888 63.02)" id="Fill-23" fill="#413125" stroke="none" />
    <path d="M5.212 3.148C4.688 3.148 4.248 3.388 3.892 3.868C3.54 4.348 3.36 5.024 3.36 5.896C3.36 6.76 3.532 7.428 3.868 7.892C4.208 8.356 4.652 8.588 5.204 8.588C5.756 8.588 6.204 8.356 6.548 7.884C6.892 7.412 7.064 6.744 7.064 5.868C7.064 4.992 6.888 4.32 6.532 3.852C6.176 3.384 5.736 3.148 5.212 3.148M5.204 11.784C3.668 11.784 2.42 11.284 1.452 10.276C0.484 9.272 0 7.808 0 5.876C0 3.948 0.488 2.484 1.464 1.492C2.448 0.496 3.708 0 5.256 0C6.796 0 8.048 0.488 9 1.468C9.952 2.448 10.428 3.928 10.428 5.908C10.428 7.892 9.94 9.368 8.964 10.336C7.992 11.304 6.74 11.784 5.204 11.784" transform="translate(87.1088 62.8732)" id="Fill-25" fill="#413125" stroke="none" />
    <path d="M0.699 1.452C1.631 1.452 1.631 0 0.699 0C-0.233 0 -0.233 1.452 0.699 1.452" transform="translate(63.8678 18.534)" id="Fill-27" fill="#413125" stroke="none" />
    <path d="M1.053 2.176C2.453 2.176 2.457 0 1.053 0C-0.351 0 -0.351 2.176 1.053 2.176" transform="translate(109.6934 68.0404)" id="Fill-29" fill="#413125" stroke="none" />
    <path d="M0.525 1.088C1.229 1.088 1.229 0 0.525 0C-0.175 0 -0.175 1.088 0.525 1.088" transform="translate(61.0378 79.8608)" id="Fill-31" fill="#413125" stroke="none" />
    <path d="M0.525 1.088C1.225 1.088 1.229 0 0.525 0C-0.175 0 -0.175 1.088 0.525 1.088" transform="translate(120.1902 26.6812)" id="Fill-33" fill="#413125" stroke="none" />
    <path d="M0.525 1.088C1.225 1.088 1.229 0 0.525 0C-0.175 0 -0.175 1.088 0.525 1.088" transform="translate(12.827 44.1948)" id="Fill-35" fill="#413125" stroke="none" />
    <path d="M0.528 1.088C1.228 1.088 1.228 0 0.528 0C-0.176 0 -0.176 1.088 0.528 1.088" transform="translate(46.496 84.5936)" id="Fill-37" fill="#413125" stroke="none" />
    <path d="M0.528 1.088C1.228 1.088 1.228 0 0.528 0C-0.176 0 -0.176 1.088 0.528 1.088" transform="translate(101.9644 23.32)" id="Fill-39" fill="#413125" stroke="none" />
    <path d="M0.525 1.088C1.229 1.088 1.229 0 0.525 0C-0.175 0 -0.175 1.088 0.525 1.088" transform="translate(35.7838 22.232)" id="Fill-41" fill="#413125" stroke="none" />
    <path d="M0.528 1.088C1.228 1.088 1.228 0 0.528 0C-0.176 0 -0.176 1.088 0.528 1.088" transform="translate(87.1092 77.0524)" id="Fill-43" fill="#413125" stroke="none" />
    <path d="M0.526501 1.088C1.2265 1.088 1.2265 0 0.526501 0C-0.173499 0 -0.177499 1.088 0.526501 1.088" transform="translate(84.3683 14.728)" id="Fill-45" fill="#413125" stroke="none" />
    <path d="M0.526501 1.088C1.2265 1.088 1.2265 0 0.526501 0C-0.173499 0 -0.177499 1.088 0.526501 1.088" transform="translate(81.9699 25.5936)" id="Fill-47" fill="#413125" stroke="none" />
    <path d="M0.699 1.452C1.631 1.452 1.631 0 0.699 0C-0.233 0 -0.233 1.452 0.699 1.452" transform="translate(22.149 70.2156)" id="Fill-49" fill="#413125" stroke="none" />
    <path d="M0.699 1.448C1.631 1.448 1.635 0 0.699 0C-0.233 0 -0.233 1.448 0.699 1.448" transform="translate(32.3914 62.1512)" id="Fill-51" fill="#413125" stroke="none" />
    <path d="M0.699 1.448C1.631 1.448 1.635 0 0.699 0C-0.233 0 -0.233 1.448 0.699 1.448" transform="translate(128.7426 51.0712)" id="Fill-53" fill="#413125" stroke="none" />
  </g>
</svg>